<svg width="16" height="17" viewBox="0 0 16 17" fill="none" xmlns="http://www.w3.org/2000/svg">
<path d="M14.189 6.41808L10.2218 5.84152L8.44834 2.24621C8.39991 2.14777 8.32022 2.06808 8.22178 2.01965C7.97491 1.89777 7.67491 1.99933 7.55147 2.24621L5.77803 5.84152L1.81084 6.41808C1.70147 6.43371 1.60147 6.48527 1.52491 6.5634C1.43235 6.65853 1.38134 6.78652 1.3831 6.91924C1.38486 7.05197 1.43924 7.17856 1.53428 7.27121L4.40459 10.0696L3.72647 14.0212C3.71057 14.1131 3.72074 14.2077 3.75583 14.2941C3.79093 14.3805 3.84953 14.4554 3.92501 14.5102C4.00049 14.5651 4.08982 14.5976 4.18288 14.6043C4.27593 14.6109 4.36898 14.5913 4.45147 14.5478L7.99991 12.6821L11.5483 14.5478C11.6452 14.5993 11.7577 14.6165 11.8655 14.5978C12.1374 14.5509 12.3202 14.2931 12.2733 14.0212L11.5952 10.0696L14.4655 7.27121C14.5437 7.19465 14.5952 7.09465 14.6108 6.98527C14.653 6.71183 14.4624 6.45871 14.189 6.41808Z" fill="#FEA250"/>
</svg>
