<svg width="33" height="35" viewBox="0 0 33 35" fill="none" xmlns="http://www.w3.org/2000/svg">
<ellipse cx="17" cy="17.3806" rx="15" ry="16.8" fill="#F53838"/>
<path d="M16.5 0.580566C7.38719 0.580566 0 8.10207 0 17.3806C0 26.6591 7.38719 34.1806 16.5 34.1806C25.6128 34.1806 33 26.6591 33 17.3806C33 8.10207 25.6128 0.580566 16.5 0.580566ZM20.4084 12.1901H17.9283C17.6344 12.1901 17.3078 12.5838 17.3078 13.1071V14.9306H20.4102L19.9409 17.5311H17.3078V25.3378H14.3808V17.5311H11.7253V14.9306H14.3808V13.4011C14.3808 11.2066 15.8761 9.42332 17.9283 9.42332H20.4084V12.1901Z" fill="white"/>
</svg>
