<svg width="34" height="35" viewBox="0 0 34 35" fill="none" xmlns="http://www.w3.org/2000/svg">
<ellipse cx="16.8967" cy="15.5806" rx="14.7321" ry="15" fill="#F53838"/>
<path d="M21.8564 17.3806C21.8564 18.773 21.3132 20.1083 20.3462 21.0929C19.3792 22.0774 18.0677 22.6306 16.7002 22.6306C15.3327 22.6306 14.0212 22.0774 13.0542 21.0929C12.0872 20.1083 11.5439 18.773 11.5439 17.3806C11.5439 17.0813 11.5749 16.7891 11.6282 16.5056H9.82519V23.5003C9.82519 23.9868 10.2119 24.3806 10.6897 24.3806H22.7124C22.9414 24.3801 23.1608 24.2872 23.3226 24.1221C23.4843 23.9571 23.5752 23.7335 23.5752 23.5003V16.5056H21.7722C21.8255 16.7891 21.8564 17.0813 21.8564 17.3806V17.3806ZM16.7002 20.8806C17.1517 20.8805 17.5988 20.7898 18.0159 20.6137C18.4331 20.4377 18.812 20.1797 19.1312 19.8546C19.4504 19.5294 19.7036 19.1434 19.8763 18.7186C20.049 18.2938 20.1378 17.8386 20.1377 17.3788C20.1376 16.9191 20.0485 16.4639 19.8756 16.0392C19.7027 15.6145 19.4494 15.2286 19.13 14.9036C18.8107 14.5786 18.4315 14.3208 18.0143 14.145C17.5971 13.9691 17.15 13.8787 16.6985 13.8788C15.7866 13.8791 14.9121 14.2481 14.2674 14.9048C13.6228 15.5615 13.2607 16.4521 13.261 17.3806C13.2612 18.3091 13.6237 19.1994 14.2687 19.8558C14.9136 20.5122 15.7883 20.8808 16.7002 20.8806V20.8806ZM20.8252 13.7056H22.886C23.0229 13.7056 23.1542 13.6503 23.2512 13.5519C23.3482 13.4535 23.4029 13.32 23.4033 13.1806V11.0823C23.4033 10.9426 23.3488 10.8086 23.2518 10.7098C23.1548 10.6111 23.0232 10.5556 22.886 10.5556H20.8252C20.688 10.5556 20.5564 10.6111 20.4594 10.7098C20.3624 10.8086 20.3079 10.9426 20.3079 11.0823V13.1806C20.3096 13.4693 20.5416 13.7056 20.8252 13.7056V13.7056ZM16.7002 0.580566C12.3241 0.580566 8.12728 2.35056 5.03293 5.50117C1.93858 8.65178 0.200195 12.9249 0.200195 17.3806C0.200195 21.8362 1.93858 26.1094 5.03293 29.26C8.12728 32.4106 12.3241 34.1806 16.7002 34.1806C18.867 34.1806 21.0126 33.746 23.0145 32.9017C25.0163 32.0575 26.8353 30.82 28.3675 29.26C29.8996 27.6999 31.115 25.8479 31.9442 23.8097C32.7734 21.7714 33.2002 19.5868 33.2002 17.3806C33.2002 15.1744 32.7734 12.9898 31.9442 10.9515C31.115 8.91322 29.8996 7.0612 28.3675 5.50117C26.8353 3.94115 25.0163 2.70367 23.0145 1.85939C21.0126 1.01511 18.867 0.580566 16.7002 0.580566V0.580566ZM25.2939 24.1863C25.2939 25.2556 24.4346 26.1306 23.3844 26.1306H10.016C8.96582 26.1306 8.10644 25.2556 8.10644 24.1863V10.5748C8.10644 9.50557 8.96582 8.63057 10.016 8.63057H23.3844C24.4346 8.63057 25.2939 9.50557 25.2939 10.5748V24.1863V24.1863Z" fill="white"/>
</svg>
