<svg width="34" height="35" viewBox="0 0 34 35" fill="none" xmlns="http://www.w3.org/2000/svg">
<ellipse cx="17.5645" cy="16.2726" rx="15" ry="15.2727" fill="#F53838"/>
<path d="M17.1001 0.580078C7.98729 0.580078 0.600098 8.10158 0.600098 17.3801C0.600098 26.6586 7.98729 34.1801 17.1001 34.1801C26.2129 34.1801 33.6001 26.6586 33.6001 17.3801C33.6001 8.10158 26.2129 0.580078 17.1001 0.580078ZM23.8118 14.3421C23.8187 14.4856 23.8204 14.6291 23.8204 14.7691C23.8204 19.1441 20.5531 24.1858 14.5753 24.1858C12.8089 24.1888 11.0793 23.6723 9.59432 22.6983C9.84697 22.7298 10.1065 22.7421 10.3695 22.7421C11.8923 22.7421 13.2931 22.2153 14.4051 21.3263C13.7274 21.3128 13.0708 21.0843 12.5267 20.6727C11.9826 20.2612 11.5782 19.687 11.3698 19.0303C11.8565 19.1246 12.3578 19.1048 12.8359 18.9726C12.1003 18.8211 11.4389 18.4153 10.9637 17.824C10.4884 17.2326 10.2287 16.4922 10.2285 15.7281V15.6878C10.6668 15.9346 11.1687 16.0851 11.7015 16.1026C11.0119 15.6352 10.5238 14.9173 10.3369 14.0956C10.15 13.2739 10.2785 12.4105 10.696 11.6821C11.5124 12.7041 12.5304 13.5401 13.6842 14.1361C14.838 14.7321 16.1019 15.0747 17.394 15.1418C17.2297 14.4319 17.3004 13.6865 17.5951 13.0217C17.8898 12.3569 18.3919 11.8098 19.0235 11.4655C19.6551 11.1213 20.3806 10.9991 21.0874 11.118C21.7942 11.2369 22.4426 11.5903 22.9318 12.1231C23.6591 11.9766 24.3566 11.7049 24.9943 11.3198C24.7519 12.0866 24.2444 12.7376 23.566 13.1521C24.2103 13.0731 24.8394 12.8967 25.4326 12.6288C24.9969 13.2936 24.448 13.8738 23.8118 14.3421V14.3421Z" fill="white"/>
</svg>
