<svg width="14" height="10" viewBox="0 0 14 10" fill="none" xmlns="http://www.w3.org/2000/svg">
<path d="M5.35415 9.27958C5.22289 9.27984 5.09286 9.25419 4.97153 9.20408C4.85021 9.15397 4.73997 9.08039 4.64715 8.98758L0.405152 4.74458C0.309579 4.6524 0.23332 4.54211 0.180827 4.42014C0.128333 4.29817 0.100656 4.16697 0.0994093 4.0342C0.0981626 3.90142 0.123372 3.76972 0.173566 3.64679C0.22376 3.52386 0.297933 3.41216 0.391759 3.3182C0.485584 3.22424 0.597182 3.14991 0.720042 3.09954C0.842901 3.04918 0.974561 3.02378 1.10734 3.02484C1.24012 3.0259 1.37136 3.05339 1.4934 3.10571C1.61544 3.15803 1.72584 3.23413 1.81815 3.32958L5.35315 6.86458L11.7182 0.501577C11.9057 0.313936 12.16 0.208468 12.4253 0.208374C12.6906 0.20828 12.945 0.313569 13.1327 0.501077C13.3203 0.688585 13.4258 0.942953 13.4259 1.20822C13.4259 1.47349 13.3207 1.72794 13.1332 1.91558L6.06115 8.98758C5.96833 9.08039 5.8581 9.15397 5.73677 9.20408C5.61544 9.25419 5.48542 9.27984 5.35415 9.27958Z" fill="#2FAB73"/>
</svg>
